<?xml version="1.0" encoding="UTF-8" standalone="no"?>
<!-- Created with Inkscape (http://www.inkscape.org/) -->

<svg
   width="357.45941"
   height="499.74631"
   viewBox="0 0 94.577993 132.22481"
   version="1.1"
   id="svg1"
   inkscape:version="1.3.2 (091e20ef0f, 2023-11-25, custom)"
   xml:space="preserve"
   sodipodi:docname="tiet-logo.svg"
   inkscape:export-filename="tiet-logo.pdf"
   inkscape:export-xdpi="96"
   inkscape:export-ydpi="96"
   xmlns:inkscape="http://www.inkscape.org/namespaces/inkscape"
   xmlns:sodipodi="http://sodipodi.sourceforge.net/DTD/sodipodi-0.dtd"
   xmlns="http://www.w3.org/2000/svg"
   xmlns:svg="http://www.w3.org/2000/svg"><sodipodi:namedview
     id="namedview1"
     pagecolor="#ffffff"
     bordercolor="#000000"
     borderopacity="0.25"
     inkscape:showpageshadow="2"
     inkscape:pageopacity="0.0"
     inkscape:pagecheckerboard="0"
     inkscape:deskcolor="#d1d1d1"
     inkscape:document-units="px"
     inkscape:zoom="0.514375"
     inkscape:cx="181.774"
     inkscape:cy="312.02916"
     inkscape:window-width="1916"
     inkscape:window-height="1029"
     inkscape:window-x="0"
     inkscape:window-y="24"
     inkscape:window-maximized="1"
     inkscape:current-layer="layer1" /><defs
     id="defs1" /><g
     inkscape:label="Layer 1"
     inkscape:groupmode="layer"
     id="layer1"
     transform="translate(-70.917472,-129.10115)"><g
       id="g4"><path
         style="fill:#000000"
         d="M 154.73531,158.42328 C 157.18231,157.71806 159.57605,156.20592 161.45028,154.18139 166.97992,148.20831 166.82342,139.36349 161.08533,133.55525 152.71399,125.08159 138.25305,129.32705 135.78929,140.98169 133.98,149.54038 139.95969,157.86407 148.69255,158.94293 150.80545,159.20396 152.54578,159.0543 154.73531,158.42328 Z"
         id="path4" /><path
         style="fill:#000000"
         d="M 164.45947,211.29485 164.39262,162.01611 152.15038,161.94732 139.90813,161.87852 139.98341,206.26511 C 140.05537,248.69559 140.08047,250.72749 140.55308,252.3715 141.64674,256.17583 143.69408,258.81733 146.40092,259.91644 147.96456,260.55135 148.11273,260.56113 156.25737,260.56732 L 164.52631,260.5736 Z"
         id="path3" /><path
         style="fill:#000000"
         d="M 119.94253,260.98377 C 122.98539,260.50575 126.69529,259.23279 128.45958,258.06137 131.95951,255.73755 134.38732,250.2457 133.97989,245.57411 133.88863,244.52768 133.6267,243.0394 133.39782,242.26681 132.63279,239.68432 130.61316,236.73488 128.77846,235.52073 128.21635,235.14874 127.80528,234.76537 127.86497,234.66879 127.92465,234.57221 127.77387,234.47941 127.5299,234.46258 127.28592,234.44574 126.55052,234.22981 125.89567,233.98273 125.12015,233.69011 123.27523,233.44748 120.60399,233.2868 106.68893,232.4498 101.80532,230.23636 98.411104,223.22814 96.283984,218.83616 95.685594,215.53111 95.531974,207.32609 L 95.409364,200.77764 H 108.21568 C 122.0214,200.77764 122.58891,200.72995 125.33404,199.33888 126.0389,198.9817 127.27045,198.09098 128.07081,197.35949 128.87118,196.628 129.59026,196.09374 129.66877,196.17225 129.74728,196.25076 129.79896,196.15823 129.78362,195.96663 129.76828,195.77502 130.18955,194.72529 130.71977,193.63388 132.05603,190.88331 132.44813,188.3365 131.99955,185.32135 131.17986,179.81175 127.47755,175.43032 122.72067,174.34041 121.99171,174.17339 116.47733,174.0651 108.49928,174.06114 L 95.468534,174.05467 V 151.82963 129.60458 H 92.725064 C 86.181504,129.60458 80.364874,131.49514 76.697444,134.81397 74.724164,136.59969 73.717264,138.02882 72.672304,140.527 70.974874,144.58501 71.040644,143.09631 70.945524,179.61093 70.842594,219.11801 70.924004,221.13203 72.947414,229.14067 75.009054,237.30064 78.792164,244.18836 84.121144,249.48414 90.299844,255.62434 98.209974,259.5916 106.97793,260.94778 110.13553,261.43618 116.94245,261.45507 119.94253,260.98377 Z"
         id="path2" /></g></g></svg>
